<svg id="Layer_1" data-name="Layer 1" xmlns="http://www.w3.org/2000/svg" viewBox="0 0 566.93 566.93"><defs><style>.cls-1{fill:#fff;}</style></defs><title>Artboard 1</title><path class="cls-1" d="M167.53,409.56c0-7.25-4.94-12.24-14.38-12.24h-9.22v40.83h4.76V421.52h6.46l9.67,16.63h5.25l-10.35-17.6C164.87,418.83,167.53,414.88,167.53,409.56Zm-14.35,8.16h-4.48V401.64h4.48c6.54,0,9.89,2.66,9.89,8.08C163.07,414.87,159.71,417.72,153.18,417.72Z"/><polygon class="cls-1" points="28.83 401.69 39.76 401.69 39.76 438.15 44.48 438.15 44.48 401.69 55.35 401.69 55.35 397.37 28.83 397.37 28.83 401.69"/><path class="cls-1" d="M75.32,407.11a10.25,10.25,0,0,0-9,5.12V397.37h-4.6v40.78h4.6V419.74c0-5,3.27-8.45,7.93-8.45,4.08,0,7.16,2.9,7.16,7.74v19.12H86V419.22C86,412.34,82.37,407.11,75.32,407.11Z"/><path class="cls-1" d="M107,407.11c-8,0-14.68,6.35-14.68,16,0,9.32,6.35,15.79,15.55,15.79,6.88,0,10.84-3.73,12.53-6.59l-3-2.21a11.1,11.1,0,0,1-9.44,4.71c-6.29,0-10.84-4.08-10.89-10.84h24.29c.06-.58.06-1.22.06-1.4C121.41,413.5,115.94,407.11,107,407.11Zm-9.73,13.45a9.81,9.81,0,0,1,9.73-9.5c5,0,9.38,3.21,9.67,9.5Z"/><path class="cls-1" d="M194.9,396.62c-11.83,0-20.8,9.14-20.8,21.14s8.92,21.15,20.74,21.15,20.86-9.14,20.86-21.15S206.78,396.62,194.9,396.62Zm0,37.86c-9,0-15.91-7.05-15.91-16.72S185.87,401,194.9,401s15.9,7.16,15.9,16.72S203.93,434.48,194.9,434.48Z"/><rect class="cls-1" x="223.92" y="397.37" width="4.72" height="40.78"/><path class="cls-1" d="M307.14,412.75a12.59,12.59,0,0,0-10.72-5.64c-8.57,0-14.56,6.63-14.56,16s5.94,15.85,14.62,15.85A12.17,12.17,0,0,0,307,433.37v2.68c0,6.76-4.89,9.14-10.65,9.14a19.16,19.16,0,0,1-9.15-2.49l-1.62,3.6a22.12,22.12,0,0,0,10.84,3c8.73,0,15.2-3.9,15.2-15.38v-26.1h-4.43Zm-10.25,22c-5.82,0-10.37-4.6-10.37-11.64s4.37-11.77,10.26-11.77,10.36,4.42,10.36,11.77C307.14,429.59,303.12,434.71,296.89,434.71Z"/><path class="cls-1" d="M332.61,407.11c-8,0-14.69,6.35-14.69,16,0,9.32,6.35,15.79,15.56,15.79,6.88,0,10.84-3.73,12.53-6.59l-3-2.21a11.1,11.1,0,0,1-9.44,4.71c-6.29,0-10.83-4.08-10.89-10.84h24.29c.06-.58.06-1.23.06-1.39C347,413.5,341.53,407.11,332.61,407.11Zm-9.73,13.45a9.8,9.8,0,0,1,9.73-9.5c5,0,9.38,3.21,9.67,9.5Z"/><path class="cls-1" d="M367.05,407.11a10.27,10.27,0,0,0-9,5.12v-4.36h-4.54v30.29h4.6V419.74c0-5,3.2-8.45,7.86-8.45,4.14,0,7.16,2.91,7.16,7.75v19.11h4.6V419.22C377.71,412.34,374.1,407.11,367.05,407.11Z"/><path class="cls-1" d="M399.63,411.35a12.65,12.65,0,0,1,9,3.85l1.58-4a15.23,15.23,0,0,0-10.67-4.14C390.71,407.11,384,414,384,423s6.53,15.9,15.56,15.9a15,15,0,0,0,10.6-4.31l-1.4-3.9a12.68,12.68,0,0,1-9,4c-6.23,0-11-5.18-11-11.7S393.28,411.35,399.63,411.35Z"/><polygon class="cls-1" points="427.55 432.2 417.93 407.86 412.93 407.86 425.27 437.85 420.9 448.58 425.51 448.58 441.75 407.86 436.86 407.86 427.55 432.2"/><path class="cls-1" d="M271.11,412.75a12.58,12.58,0,0,0-10.72-5.64c-8.57,0-14.56,6.63-14.56,16s5.94,15.85,14.62,15.85a12.18,12.18,0,0,0,10.49-5.54v4.78h4.6v-30.3h-4.43Zm-10.25,22c-5.82,0-10.36-4.6-10.36-11.64s4.37-11.77,10.25-11.77,10.36,4.42,10.36,11.77C271.11,429.59,267.1,434.71,260.86,434.71Z"/><path class="cls-1" d="M319.33,273.77a15.42,15.42,0,1,0-15.57-15.42A15.34,15.34,0,0,0,319.33,273.77Z"/><rect class="cls-1" x="305.06" y="282.18" width="28.4" height="85.34"/><polygon class="cls-1" points="108.51 341.26 66.33 341.26 108.47 268.23 108.47 253.63 28.83 253.63 28.83 279.73 70.64 279.73 28.83 352.15 28.83 367.52 108.51 367.52 108.51 341.26"/><path class="cls-1" d="M463.82,279.88c-8.59,0-18.16,4.69-22.45,9.87V253.63H413V367.52h28.39V310.07c3.85-2.72,8.86-4.69,12.52-4.69,7.48,0,11.29,4,11.29,12.67v49.47h28.4V310.27C493.59,291.18,482.44,279.88,463.82,279.88Z"/><path class="cls-1" d="M260.93,318.06v49.46h28.39V310.27c0-19.09-11.14-30.38-29.77-30.38-9.75,0-20.4,6-24.17,12v-9.71H208.71v85.34h28.4V310.14c3.91-2.79,8.72-4.76,12.52-4.76C257.11,305.38,260.93,309.35,260.93,318.06Z"/><path class="cls-1" d="M399.7,344.47a77,77,0,0,1-10,.77c-9,0-13.52-3.82-13.52-13.44V305.53h22.15V282.18H376.18V261.89L348.71,275v58.48c0,22,10.15,35.57,34.28,35.57a84.35,84.35,0,0,0,16.72-1.53Z"/><path class="cls-1" d="M196.78,350.75l-19.9-11.49c-2.91,2.86-8.75,7-16.24,7-10.16,0-17.53-6.54-18.2-14.25h56.35c.18-2,.18-3.77.18-5.41,0-29.33-14.92-46.85-42.26-46.85-25.23,0-42.27,20.14-42.27,45.38S131.79,370,160.13,370C178.7,370,191.64,359.35,196.78,350.75Zm-39.6-48.93c8.52,0,13.61,5.89,13.93,12.77H143.26C143.91,308.54,148.19,301.83,157.18,301.83Z"/><path class="cls-1" d="M538.22,118.86a2.06,2.06,0,0,0-2.09-.19l-187.79,89.5-.22.12a1.6,1.6,0,0,0-.3.23l-.13.14-.12.15-.11.16-.09.17a1.67,1.67,0,0,0-.14.36,1.92,1.92,0,0,0,0,.19,1.09,1.09,0,0,0,0,.15.21.21,0,0,0,0,0v0a1.42,1.42,0,0,0,0,.3,1.75,1.75,0,0,0,0,.19c0,.07,0,.13,0,.19l.05.15,0,.09.06.12.09.15.11.16a2,2,0,0,0,1.06.72l.09,0a1.83,1.83,0,0,0,.34.05h0l130.14,8.73,38.5,42.71,0,0a1.85,1.85,0,0,0,.27.25l.09.07a2,2,0,0,0,.35.19l.18.07.26.07.1,0h.44l.18,0a2.32,2.32,0,0,0,.4-.11l.13-.06.17-.09.16-.11.15-.12.17-.18.12-.15.1-.16a2,2,0,0,0,.27-.84l17.73-141.59A2.06,2.06,0,0,0,538.22,118.86Zm-12.35,9.26L481.79,172,364.16,205.18Zm4,1.86L493.1,192.7l-7.81-18.4Zm-48.15,46.32,8.84,20.83-11.45,19.55-113.5-7.61Zm1.06,42.26,9.78-16.7,22.07,52Zm35.7,33.86-23.33-55,38.43-65.65Z"/></svg>