<svg xmlns="http://www.w3.org/2000/svg" x="0px" y="0px" width="74px" height="75px" viewBox="0 0 74 75">
<style type="text/css">
.st0{fill:#C52126;}
.st1{fill:url(#SVGID_1_);}
.st2{fill:#FFFFFF;}
.st3{fill:url(#SVGID_2_);}
.st4{fill:url(#SVGID_3_);}
.st5{fill:url(#SVGID_4_);}
.st6{fill:url(#SVGID_5_);}
.st7{fill:url(#SVGID_6_);}
</style>
<path class="st0" d="M72,56V7c0-2.8-2.3-5-5-5H7C4.3,2,2,4.2,2,7v49H72z"/>
<linearGradient id="SVGID_1_" gradientUnits="userSpaceOnUse" x1="37" y1="19.0209" x2="37" y2="2.0209" gradientTransform="matrix(1 0 0 -1 0 75)"><stop offset="0" style="stop-color:#2D5E2E"/><stop offset="0.7025" style="stop-color:#76B243"/><stop offset="1" style="stop-color:#307239"/></linearGradient>
<path class="st1" d="M2,68c0,2.8,2.3,5,5,5h60c2.7,0,5-2.2,5-4.9V56H2V68z"/>
<path class="st2" d="M53.7,32.4V7h-19l-23,25.4V42h25.1v9.7h16.9V42h8.7v-9.6H53.7zM36.8,32.4H25l11.7-12.8V32.4zM19.7,64.8h3.2v-1.1h-3.2v-1.4h3.5v-1.1h-4.8v6.4h4.9v-1.1h-3.6V64.8zM15.8,63.9c-0.3-0.1-0.7-0.2-1.2-0.2h-1.7v-1.5h3.5v-1.1h-4.8v6.4h3c0.5,0,0.9-0.1,1.2-0.2c0.3-0.1,0.5-0.3,0.8-0.6c0.2-0.3,0.3-0.7,0.3-1.1c0-0.4-0.1-0.8-0.3-1.1C16.4,64.3,16.1,64,15.8,63.9zM15.4,66.2c-0.1,0.1-0.3,0.2-0.4,0.3c-0.2,0-0.4,0.1-0.8,0.1h-1.3v-1.7h1.3c0.5,0,0.9,0.1,1.1,0.2c0.2,0.1,0.3,0.3,0.3,0.6C15.6,65.9,15.5,66,15.4,66.2zM33.1,61.2l-2.5,6.4H32l0.5-1.4h2.6l0.6,1.4h1.4l-2.6-6.4H33.1zM32.9,65l0.9-2.4l0.9,2.4H32.9zM60,63.7h-1.7v-2.5h-1.3v6.4h3c0.5,0,0.9-0.1,1.2-0.2c0.3-0.1,0.5-0.3,0.8-0.6c0.2-0.3,0.3-0.7,0.3-1.1c0.1-0.6-0.1-1-0.5-1.4C61.4,63.9,60.8,63.7,60,63.7zM60.9,66.2c-0.1,0.1-0.3,0.2-0.4,0.3c-0.2,0-0.4,0.1-0.8,0.1h-1.3v-1.7h1.3c0.5,0,0.9,0.1,1.1,0.2c0.2,0.1,0.3,0.4,0.3,0.6S61,66,60.9,66.2zM25.2,65.9c0,0.3,0,0.5-0.1,0.5c-0.1,0.1-0.3,0.1-0.5,0.1h-0.3v1h0.8c0.4,0,0.7-0.1,1-0.3c0.2-0.2,0.3-0.4,0.4-0.7s0.1-0.9,0.1-1.6v-2.7h1.9v5.3h1.2v-6.4h-4.5V65.9zM53,62.3c0.3,0,0.6,0.1,0.9,0.3c0.2,0.2,0.4,0.5,0.5,0.8l1.3-0.3c-0.1-0.5-0.4-0.9-0.7-1.2c-0.5-0.5-1.1-0.7-1.9-0.7c-0.9,0-1.6,0.3-2.2,0.9c-0.6,0.6-0.8,1.4-0.8,2.5c0,1,0.3,1.8,0.8,2.4c0.5,0.6,1.2,0.9,2.1,0.9c0.7,0,1.3-0.2,1.7-0.5s0.8-0.9,1-1.5l-1.3-0.4c-0.1,0.2-0.3,0.5-0.6,0.8c-0.2,0.2-0.5,0.3-0.9,0.3c-0.5,0-0.8-0.2-1.1-0.5c-0.3-0.3-0.4-0.9-0.4-1.7c0-0.8,0.1-1.3,0.4-1.6C52.1,62.5,52.5,62.3,53,62.3zM46.6,64.5l-1.5-3.3h-1.4l2.4,4.6c-0.1,0.4-0.2,0.6-0.4,0.7c-0.1,0.1-0.3,0.2-0.6,0.2h-0.5v1c0.2,0,0.5,0.1,0.9,0.1s0.7-0.1,0.9-0.4s0.5-0.7,0.7-1.2l2.2-4.8h-1.4L46.6,64.5zM41.8,61.3c-0.2-0.1-0.8-0.1-1.5-0.1h-2.1v6.4h1.3v-2.4h0.8c0.6,0,1,0,1.3-0.1c0.2,0,0.5-0.1,0.7-0.3c0.2-0.2,0.4-0.4,0.5-0.6c0.1-0.3,0.2-0.6,0.2-1c0-0.5-0.1-0.9-0.4-1.2C42.4,61.6,42.1,61.4,41.8,61.3zM41.6,63.7c-0.1,0.1-0.2,0.2-0.4,0.3c-0.2,0.1-0.5,0.1-1,0.1h-0.7v-1.8H41c0.2,0,0.4,0.1,0.5,0.3s0.2,0.3,0.2,0.6C41.7,63.4,41.7,63.5,41.6,63.7z"/>
<linearGradient id="SVGID_2_" gradientUnits="userSpaceOnUse" x1="1.8156" y1="72.7032" x2="72.2219" y2="2.2969" gradientTransform="matrix(1 0 0 -1 0 75)"><stop offset="0" style="stop-color:#797978"/><stop offset="0.5" style="stop-color:#E6E6E5"/><stop offset="1" style="stop-color:#7D7D7C"/></linearGradient>
<path class="st3" d="M67,0H7C3.2,0,0,3.1,0,7v61c0,3.8,3.2,7,7,7h60c3.9,0,7-3.1,7-7V7C74,3.1,70.8,0,67,0zM72,68c0,2.7-2.2,4.9-5,4.9H7c-2.7,0-5-2.2-5-4.9V7c0-2.8,2.3-5,5-5h60c2.7,0,5,2.2,5,4.9V68z"/>
<linearGradient id="SVGID_3_" gradientUnits="userSpaceOnUse" x1="0" y1="52.85" x2="74" y2="52.85" gradientTransform="matrix(1 0 0 -1 0 75)"><stop offset="0" style="stop-color:#FFFFFF;stop-opacity:0"/><stop  offset="1" style="stop-color:#FFFFFF;stop-opacity:0.5"/></linearGradient>
<path class="st4" d="M67,0H7C3.2,0,0,3.1,0,7v11.8c8.9-0.5,44.2-0.8,74,25.5V7C74,3.1,70.8,0,67,0z"/>
</svg>