<?xml version="1.0" encoding="utf-8"?>
<!-- Generator: Adobe Illustrator 16.0.0, SVG Export Plug-In . SVG Version: 6.00 Build 0)  -->
<!DOCTYPE svg PUBLIC "-//W3C//DTD SVG 1.1//EN" "http://www.w3.org/Graphics/SVG/1.1/DTD/svg11.dtd">
<svg version="1.1" id="Layer_1" xmlns="http://www.w3.org/2000/svg" xmlns:xlink="http://www.w3.org/1999/xlink" x="0px" y="0px"
	 width="300px" height="110px" viewBox="0 0 300 110" enable-background="new 0 0 300 110" xml:space="preserve">
<g>
	<g>
		<path fill-rule="evenodd" clip-rule="evenodd" fill="#EE2B37" d="M80.008,69.043l0-9.989h9.764v9.989h6.946l-0.001-26.179h-6.945
			l0,10.017l-9.764,0.001V42.864h-6.946l0.001,26.179H80.008z M108.215,64.925h10.888l1.501,4.118l7.133-0.002l-10.324-26.178
			l-7.51,0.001L99.581,69.043h7.133L108.215,64.925z M112.983,51.763c0.074-0.206,0.149-0.428,0.225-0.663
			c0.075-0.234,0.151-0.512,0.226-0.83c0.075-0.318,0.149-0.705,0.225-1.162c0.075,0.457,0.15,0.844,0.226,1.162
			c0.074,0.317,0.15,0.595,0.226,0.83c0.075,0.235,0.149,0.457,0.225,0.663l2.704,7.555h-6.758L112.983,51.763z M137.538,69.041
			l0-8.227h3.456c1.633-0.003,3.142-0.152,4.529-0.451c1.386-0.298,2.597-0.787,3.631-1.471c1.034-0.682,1.838-1.6,2.413-2.754
			c0.575-1.152,0.866-2.587,0.876-4.301c-0.01-1.713-0.301-3.149-0.876-4.307c-0.575-1.157-1.379-2.078-2.414-2.763
			c-1.035-0.684-2.245-1.175-3.631-1.472c-1.387-0.296-2.896-0.441-4.529-0.435l-10.401,0.001l0.001,26.178H137.538z
			 M137.538,48.843h3.793c0.711-0.007,1.367,0.078,1.967,0.253c0.6,0.175,1.083,0.48,1.449,0.917
			c0.367,0.438,0.555,1.046,0.564,1.825c-0.01,0.779-0.198,1.388-0.564,1.825c-0.366,0.438-0.85,0.744-1.449,0.919
			c-0.601,0.175-1.256,0.258-1.967,0.253h-3.793V48.843z M179.411,46.393c-1.174-1.263-2.641-2.258-4.4-2.981
			c-1.76-0.725-3.813-1.094-6.16-1.108c-2.347,0.014-4.4,0.383-6.16,1.108c-1.76,0.724-3.227,1.718-4.399,2.981
			c-1.173,1.265-2.053,2.715-2.64,4.35c-0.586,1.637-0.879,3.372-0.879,5.209c0,1.839,0.293,3.574,0.879,5.209
			c0.588,1.636,1.468,3.085,2.641,4.349c1.173,1.265,2.639,2.259,4.399,2.982c1.759,0.725,3.813,1.093,6.159,1.106
			c2.348-0.014,4.4-0.383,6.161-1.106c1.76-0.724,3.226-1.718,4.399-2.982c1.173-1.265,2.052-2.714,2.639-4.349
			c0.587-1.636,0.88-3.371,0.88-5.209c0-1.837-0.293-3.573-0.88-5.21C181.463,49.106,180.583,47.656,179.411,46.393z
			 M175.008,59.703c-0.526,1.094-1.305,1.953-2.335,2.581c-1.031,0.626-2.305,0.946-3.822,0.959c-1.516-0.013-2.79-0.333-3.82-0.959
			c-1.031-0.628-1.811-1.487-2.336-2.581c-0.525-1.092-0.791-2.344-0.792-3.752c0.001-1.408,0.265-2.659,0.792-3.753
			c0.525-1.091,1.305-1.952,2.336-2.579c1.03-0.627,2.304-0.947,3.82-0.96c1.517,0.013,2.79,0.332,3.822,0.96
			c1.03,0.626,1.809,1.487,2.335,2.579c0.526,1.093,0.79,2.345,0.792,3.753C175.798,57.359,175.534,58.611,175.008,59.703z
			 M191.227,69.04h17.278l0.002,5.424h6.002V63.06h-3.383l-0.001-20.199h-18.772c0.011,2.317-0.095,4.645-0.32,6.982
			c-0.225,2.338-0.637,4.625-1.236,6.858c-0.6,2.234-1.457,4.354-2.57,6.359h-3.002v11.404h6.003V69.04z M197.205,58.867
			c0.427-1.518,0.758-3.105,0.995-4.768c0.236-1.662,0.416-3.35,0.535-5.066h5.443l0.001,14.027l-8.635,0.001
			C196.227,61.779,196.78,60.382,197.205,58.867z M235.985,42.86l0.001,10.017h-9.765V42.861h-6.947l0.002,26.179h6.945v-9.991
			h9.765v9.991l6.945-0.001l-0.001-26.179H235.985z M272.457,46.389c-1.174-1.264-2.641-2.257-4.4-2.982
			c-1.761-0.723-3.813-1.092-6.16-1.106c-2.348,0.014-4.4,0.383-6.16,1.107s-3.227,1.718-4.398,2.982
			c-1.174,1.265-2.055,2.715-2.641,4.35c-0.586,1.635-0.879,3.372-0.879,5.208c0,1.839,0.293,3.575,0.879,5.209
			c0.588,1.636,1.468,3.085,2.641,4.35c1.174,1.264,2.639,2.257,4.399,2.981c1.759,0.725,3.813,1.093,6.159,1.106
			c2.348-0.014,4.4-0.382,6.16-1.106c1.761-0.725,3.227-1.718,4.4-2.982c1.173-1.265,2.052-2.713,2.639-4.35
			c0.586-1.634,0.88-3.371,0.879-5.208c0.001-1.837-0.293-3.574-0.879-5.209C274.509,49.104,273.629,47.654,272.457,46.389z
			 M268.054,59.7c-0.526,1.093-1.304,1.954-2.335,2.581s-2.305,0.947-3.822,0.959c-1.516-0.012-2.79-0.332-3.821-0.959
			c-1.03-0.627-1.81-1.488-2.335-2.58c-0.526-1.093-0.79-2.344-0.792-3.753c0.002-1.407,0.265-2.658,0.791-3.752
			c0.526-1.092,1.306-1.953,2.336-2.581c1.031-0.627,2.305-0.947,3.821-0.958c1.516,0.012,2.79,0.331,3.822,0.958
			c1.031,0.628,1.809,1.489,2.335,2.581c0.526,1.093,0.79,2.344,0.792,3.752C268.844,57.357,268.58,58.607,268.054,59.7z
			 M287.798,63.057v-4.266h10.851v-5.943l-10.851,0.001v-4.01h11.976v-5.981l-18.921,0.001l0.001,26.178H300v-5.98H287.798z
			 M94.033,83.067c-0.575-1.158-1.379-2.078-2.413-2.764c-1.035-0.686-2.245-1.176-3.631-1.471
			c-1.388-0.297-2.897-0.442-4.529-0.436l-10.401,0.001l0.001,26.18h6.945l-0.001-8.229h3.457c1.632-0.002,3.142-0.152,4.529-0.451
			c1.387-0.297,2.597-0.787,3.631-1.471c1.034-0.681,1.838-1.6,2.413-2.752c0.575-1.155,0.867-2.588,0.875-4.301
			C94.899,85.659,94.607,84.224,94.033,83.067z M87.215,89.199c-0.367,0.437-0.85,0.743-1.45,0.917
			c-0.6,0.175-1.255,0.26-1.967,0.252l-3.793,0.002v-5.992h3.793c0.711-0.007,1.366,0.077,1.967,0.252
			c0.6,0.176,1.083,0.48,1.45,0.918c0.365,0.438,0.553,1.046,0.564,1.826C87.769,88.153,87.58,88.761,87.215,89.199z
			 M105.231,78.397l-10.323,26.181l7.133-0.002l1.501-4.118h10.888l1.502,4.118h7.132L112.74,78.397H105.231z M105.607,94.852
			l2.703-7.555c0.075-0.206,0.151-0.428,0.226-0.664c0.076-0.235,0.15-0.511,0.226-0.829c0.075-0.318,0.149-0.706,0.225-1.162
			c0.075,0.456,0.15,0.844,0.226,1.162c0.074,0.318,0.15,0.594,0.224,0.829c0.076,0.236,0.151,0.458,0.226,0.664l2.704,7.554
			L105.607,94.852z M150.274,98.595l-0.001-20.199l-18.772,0.002c0.011,2.316-0.094,4.643-0.319,6.98s-0.638,4.624-1.237,6.857
			c-0.6,2.235-1.456,4.354-2.57,6.359h-3.001V110h6.002v-5.425h17.278v5.423h6.003l-0.001-11.403H150.274z M143.329,98.595h-8.635
			c0.682-1.279,1.237-2.677,1.661-4.193c0.426-1.517,0.757-3.105,0.995-4.768c0.237-1.662,0.417-3.352,0.535-5.066h5.444V98.595z
			 M175.083,78.396l-10.289,15.033c0.056-0.629,0.095-1.323,0.117-2.085c0.023-0.761,0.034-1.511,0.033-2.253V78.396h-6.945v26.179
			h6.57l10.289-14.997c-0.057,0.631-0.096,1.324-0.118,2.08s-0.034,1.496-0.032,2.221v10.696l6.946-0.001l-0.001-26.178H175.083z
			 M211.177,81.926c-1.173-1.264-2.64-2.259-4.399-2.981c-1.76-0.725-3.813-1.094-6.159-1.107c-2.348,0.014-4.402,0.383-6.161,1.107
			c-1.76,0.723-3.226,1.718-4.399,2.981c-1.173,1.265-2.052,2.714-2.639,4.349c-0.586,1.636-0.879,3.373-0.879,5.21
			s0.293,3.573,0.879,5.208c0.587,1.635,1.467,3.084,2.64,4.348c1.173,1.265,2.64,2.26,4.399,2.984
			c1.76,0.723,3.813,1.093,6.16,1.106c2.348-0.014,4.4-0.384,6.16-1.107c1.759-0.724,3.227-1.719,4.399-2.983
			c1.172-1.264,2.052-2.713,2.638-4.348c0.587-1.635,0.881-3.372,0.881-5.209c0-1.838-0.294-3.573-0.881-5.209
			C213.229,84.639,212.35,83.19,211.177,81.926z M206.774,95.235c-0.526,1.093-1.305,1.953-2.336,2.58
			c-1.03,0.628-2.305,0.947-3.82,0.96c-1.517-0.013-2.791-0.332-3.822-0.96c-1.031-0.627-1.809-1.487-2.335-2.58
			c-0.526-1.092-0.79-2.343-0.792-3.751c0.002-1.409,0.266-2.66,0.792-3.753c0.526-1.092,1.304-1.953,2.335-2.58
			s2.305-0.947,3.822-0.96c1.516,0.013,2.789,0.333,3.82,0.96s1.81,1.488,2.336,2.58c0.525,1.093,0.791,2.344,0.791,3.752
			S207.302,94.144,206.774,95.235z M14.595,34.791l0.002,10.121c0,8.674,7.064,15.712,15.771,15.712h3.287
			c8.708,0,15.774-7.039,15.774-15.713l-0.003-14.568H29.205l4.585-2.853l12.443-7.745L38.486,7.388
			c-4.614-7.356-14.349-9.597-21.73-5.002l-2.791,1.736C6.578,8.717,4.33,18.417,8.944,25.775L14.595,34.791z M42.855,36.892
			l0.001,8.02c0,5.058-4.121,9.164-9.201,9.164h-3.287c-5.077,0-9.199-4.106-9.199-9.165l0-8.019H42.855z M17.445,9.676l2.792-1.735
			c4.303-2.679,9.983-1.373,12.674,2.917l4.265,6.803l-6.867,4.274l-11.528,7.17l-4.264-6.801
			C11.828,18.014,13.14,12.354,17.445,9.676z M60.737,42.297c-1.815,0-3.286,1.466-3.286,3.273
			c0,12.703-10.349,23.012-23.097,23.014h-4.682c-12.75,0-23.098-10.312-23.1-23.011c0-1.808-1.473-3.273-3.287-3.273
			C1.472,42.3,0,43.767,0,45.574c0.002,16,12.782,29.046,28.724,29.546l0,22.952l-7.649,0.001c-1.814,0-3.285,1.467-3.285,3.274
			c0,1.809,1.473,3.275,3.286,3.275l21.871-0.004c1.813,0,3.286-1.469,3.286-3.275c0-1.808-1.473-3.274-3.287-3.274l-7.649,0.001
			V75.12c15.942-0.498,28.726-13.545,28.726-29.549C64.023,43.764,62.551,42.297,60.737,42.297z"/>
	</g>
</g>
</svg>
